<svg xmlns="http://www.w3.org/2000/svg" width="1514.654" height="194.375" viewBox="0 0 1514.654 194.375">
  <metadata><?xpacket begin="﻿" id="W5M0MpCehiHzreSzNTczkc9d"?>
<x:xmpmeta xmlns:x="adobe:ns:meta/" x:xmptk="Adobe XMP Core 5.6-c138 79.159824, 2016/09/14-01:09:01        ">
   <rdf:RDF xmlns:rdf="http://www.w3.org/1999/02/22-rdf-syntax-ns#">
      <rdf:Description rdf:about=""/>
   </rdf:RDF>
</x:xmpmeta>
                                                                                                    
                                                                                                    
                                                                                                    
                                                                                                    
                                                                                                    
                                                                                                    
                                                                                                    
                                                                                                    
                                                                                                    
                                                                                                    
                                                                                                    
                                                                                                    
                                                                                                    
                                                                                                    
                                                                                                    
                                                                                                    
                                                                                                    
                                                                                                    
                                                                                                    
                                                                                                    
                           
<?xpacket end="w"?></metadata>
<defs>
    <style>
      .cls-1 {
        fill: #ff9b00;
      }

      .cls-1, .cls-2 {
        fill-rule: evenodd;
      }

      .cls-2 {
        fill: #fff;
      }
    </style>
  </defs>
  <path id="Ellipse_564_copy" data-name="Ellipse 564 copy" class="cls-1" d="M577,352.322H496.43s-92.848.1-99.874,98.679H390s1.874-98.4,107.268-105H577v6.323Zm520-.422h-74.97s-86.392.1-92.93,92.1H924s0.742-91.843,98.81-98H1097v5.9Zm529,0h-74.97s-86.39.1-92.93,92.1H1452s1.74-91.844,99.81-98H1626v5.9ZM840,533.8H763.308s-88.379-.1-95.068-96.8H662s1.784,96.53,102.106,103H840v-6.2Zm518,0h-76.69s-88.38-.1-95.07-96.8H1180s1.78,96.53,102.1,103H1358v-6.2Z" transform="translate(-203.156 -345.906)"/>
  <path id="Ellipse_565_copy_3" data-name="Ellipse 565 copy 3" class="cls-2" d="M300.075,345.911A97.186,97.186,0,1,1,203.161,443.1,97.05,97.05,0,0,1,300.075,345.911Zm271.545,0A97.186,97.186,0,1,1,474.706,443.1,97.05,97.05,0,0,1,571.62,345.911Zm260.274,0A97.186,97.186,0,1,1,734.98,443.1,97.05,97.05,0,0,1,831.894,345.911Zm257.2,0A97.186,97.186,0,1,1,992.179,443.1,97.051,97.051,0,0,1,1089.09,345.911Zm271.55,0a97.186,97.186,0,1,1-96.92,97.186A97.049,97.049,0,0,1,1360.64,345.911Zm260.27,0A97.186,97.186,0,1,1,1524,443.1,97.051,97.051,0,0,1,1620.91,345.911ZM299,352a91,91,0,1,1-91,91A91,91,0,0,1,299,352Zm273,2a89,89,0,1,1-89,89A89,89,0,0,1,572,354Zm259.5-1A89.5,89.5,0,1,1,742,442.5,89.5,89.5,0,0,1,831.5,353Zm258,1a89.5,89.5,0,1,1-89.5,89.5A89.5,89.5,0,0,1,1089.5,354Zm270.5-1a90,90,0,1,1-90,90A90,90,0,0,1,1360,353Zm261,0a90,90,0,1,1-90,90A90,90,0,0,1,1621,353Z" transform="translate(-203.156 -345.906)"/>
</svg>
